mtllib StageF000Light.mtl
o polygon0
v 0.685787 3.060037 2.284752
v 0.679743 2.009042 3.628587
v 0.791879 3.320674 2.419058
v 0.784900 2.399997 3.628587
v 0.685787 3.581312 2.553364
v 0.679743 2.790954 3.628587
v 0.395939 3.772111 2.651683
v 0.392450 3.077154 3.628587
v 0.000000 3.841949 2.687670
v 0.000000 3.181910 3.628587
v -0.395939 3.772111 2.651683
v -0.392450 3.077154 3.628587
v -0.685787 3.581312 2.553364
v -0.679743 2.790954 3.628587
v -0.791879 3.320674 2.419058
v -0.784900 2.399997 3.628587
v -0.685787 3.060037 2.284752
v -0.679743 2.009042 3.628587
v -0.395939 2.869236 2.186433
v -0.392450 1.722841 3.628587
v 0.000000 2.799398 2.150445
v 0.000000 1.618085 3.628587
v 0.395939 2.869236 2.186433
v 0.392450 1.722841 3.628587
v 0.805836 5.162025 0.000000
v 0.805260 5.086036 0.099831
v 0.697875 5.162025 0.402918
v 0.697294 5.086036 0.506297
v 0.402918 5.162025 0.697875
v 0.402537 5.086036 0.804694
v 0.000000 5.162025 0.805837
v 0.000000 5.086036 0.914164
v -0.402918 5.162025 0.697875
v -0.402537 5.086036 0.804694
v -0.697875 5.162025 0.402918
v -0.697294 5.086036 0.506297
v -0.805836 5.162025 0.000000
v -0.805260 5.086036 0.099831
v -0.697875 5.162025 -0.402918
v -0.697438 5.086036 -0.305755
v -0.402918 5.162025 -0.697875
v -0.402687 5.086036 -0.602280
v 0.000000 5.162025 -0.805836
v 0.000000 5.086036 -0.710753
v 0.402918 5.162025 -0.697875
v 0.402687 5.086036 -0.602280
v 0.697875 5.162025 -0.402918
v 0.697438 5.086036 -0.305755
v 1.000002 0.203335 -0.599999
v 1.000002 0.203335 -0.135967
v 0.333336 0.203335 -0.852901
v 0.333336 0.203335 0.200000
v -0.333330 0.203335 0.200000
v -0.333330 0.203335 2.253814
v -0.999996 0.203335 2.253814
v -0.333330 0.203335 3.448704
v -0.999996 0.203335 3.448704
v 1.000002 0.203335 3.448704
v 0.333336 0.203335 3.448704
v 1.000002 0.203335 2.253814
v 0.333336 0.203335 2.253814
v -0.999996 0.203335 -0.599999
v -0.333330 0.203335 -0.852901
v -0.999996 0.203335 -0.135967
vt 0.333344 0.676117
vt 0.500000 0.567871
vt 0.500000 0.676117
vt 0.333344 0.567871
vt 0.166657 0.567871
vt 0.166657 0.207062
vt 0.000000 0.207062
vt 0.166657 0.026672
vt 0.000000 0.026672
vt 0.500000 0.207062
vt 0.333344 0.026672
vt 0.500000 0.026672
vt 0.333344 0.207062
vt 0.000000 0.567871
vt 0.166657 0.676117
vt 0.000000 0.676117
vt 0.917816 0.619934
vt 1.000000 0.494629
vt 1.000000 0.619934
vt 0.917816 0.494629
vt 0.834259 0.619934
vt 0.834259 0.494629
vt 0.750671 0.619934
vt 0.750671 0.494629
vt 0.667114 0.619934
vt 0.667114 0.494629
vt 0.583557 0.619934
vt 0.583557 0.494629
vt 0.500000 0.619934
vt 0.500000 0.494629
vt 0.416443 0.619934
vt 0.416443 0.494629
vt 0.332886 0.619934
vt 0.332886 0.494629
vt 0.249329 0.619934
vt 0.249329 0.494629
vt 0.165741 0.619934
vt 0.165741 0.494629
vt 0.082184 0.619934
vt 0.082184 0.494629
vt 0.000000 0.619934
vt 0.000000 0.494629
vt 0.834259 0.870575
vt 0.917816 0.860229
vt 0.917816 0.870575
vt 0.834259 0.858521
vt 0.750671 0.870575
vt 0.750671 0.856873
vt 0.667114 0.870575
vt 0.667114 0.856140
vt 0.583557 0.870575
vt 0.583557 0.856873
vt 0.500000 0.870575
vt 0.500000 0.858521
vt 0.416443 0.870575
vt 0.416443 0.860229
vt 0.332886 0.870575
vt 0.332886 0.861511
vt 0.249329 0.870575
vt 0.249329 0.862244
vt 0.165741 0.870575
vt 0.165741 0.862488
vt 0.082184 0.870575
vt 0.082184 0.862244
vt 0.000000 0.870575
vt 0.000000 0.861511
vt 1.000000 0.861511
vt 1.000000 0.870575
vn -0.0000 1.0000 0.0000
vn 1.0000 0.0003 0.0030
vn 0.7483 -0.5249 -0.4054
vn 0.7981 -0.4761 -0.3692
vn 0.9915 -0.1050 -0.0759
vn 0.7980 0.4845 0.3584
vn 0.8673 0.4009 0.2951
vn 0.4022 0.7447 0.5326
vn 0.4666 0.7212 0.5119
vn 0.0022 0.8169 0.5767
vn 0.0025 0.8170 0.5766
vn -0.4003 0.7449 0.5337
vn -0.4616 0.7182 0.5207
vn -0.7994 0.4828 0.3576
vn -0.8660 0.3985 0.3019
vn -1.0000 -0.0022 0.0003
vn -0.9909 -0.1075 -0.0805
vn -0.7978 -0.4764 -0.3696
vn -0.7454 -0.5239 -0.4122
vn -0.3997 -0.7187 -0.5690
vn -0.3734 -0.7256 -0.5780
vn -0.0009 -0.7820 -0.6232
vn -0.0008 -0.7820 -0.6233
vn 0.3984 -0.7191 -0.5694
vn 0.3736 -0.7280 -0.5748
vn 0.8332 0.4429 0.3309
vn 1.0000 -0.0010 0.0015
vn 0.9702 -0.1951 -0.1435
vn 0.7514 0.5284 0.3950
vn 0.3785 0.7529 0.5384
vn 0.3421 0.7626 0.5490
vn 0.0010 0.8183 0.5748
vn 0.0018 0.8174 0.5760
vn -0.3756 0.7549 0.5376
vn -0.3378 0.7669 0.5457
vn -0.8320 0.4453 0.3309
vn -0.7504 0.5316 0.3928
vn -0.9695 -0.1974 -0.1451
vn -1.0000 -0.0066 -0.0003
vn -0.6419 -0.6056 -0.4703
vn -0.7556 -0.5178 -0.4011
vn -0.2998 -0.7475 -0.5927
vn -0.3547 -0.7329 -0.5805
vn -0.0003 -0.7813 -0.6241
vn -0.0005 -0.7816 -0.6237
vn 0.3000 -0.7469 -0.5934
vn 0.3541 -0.7322 -0.5817
vn 0.6436 -0.6038 -0.4703
vn 0.7567 -0.5152 -0.4025
usemtl C_light
s off
f 51/1/1 50/2/1 49/3/1
f 52/4/1 50/2/1 51/1/1
f 53/5/1 52/4/1 51/1/1
f 54/6/1 52/4/1 53/5/1
f 55/7/1 54/6/1 53/5/1
f 56/8/1 54/6/1 55/7/1
f 57/9/1 56/8/1 55/7/1
f 60/10/1 59/11/1 58/12/1
f 61/13/1 59/11/1 60/10/1
f 50/2/1 61/13/1 60/10/1
f 52/4/1 61/13/1 50/2/1
f 64/14/1 63/15/1 62/16/1
f 53/5/1 63/15/1 64/14/1
f 55/7/1 53/5/1 64/14/1
f 54/6/1 61/13/1 52/4/1
f 56/8/1 61/13/1 54/6/1
f 63/15/1 53/5/1 51/1/1
f 59/11/1 61/13/1 56/8/1
s 1
f 3/17/2 2/18/3 1/19/4
f 4/20/5 2/18/3 3/17/2
f 5/21/6 4/20/5 3/17/2
f 6/22/7 4/20/5 5/21/6
f 7/23/8 6/22/7 5/21/6
f 8/24/9 6/22/7 7/23/8
f 9/25/10 8/24/9 7/23/8
f 10/26/11 8/24/9 9/25/10
f 11/27/12 10/26/11 9/25/10
f 12/28/13 10/26/11 11/27/12
f 13/29/14 12/28/13 11/27/12
f 14/30/15 12/28/13 13/29/14
f 15/31/16 14/30/15 13/29/14
f 16/32/17 14/30/15 15/31/16
f 17/33/18 16/32/17 15/31/16
f 18/34/19 16/32/17 17/33/18
f 19/35/20 18/34/19 17/33/18
f 20/36/21 18/34/19 19/35/20
f 21/37/22 20/36/21 19/35/20
f 22/38/23 20/36/21 21/37/22
f 23/39/24 22/38/23 21/37/22
f 24/40/25 22/38/23 23/39/24
f 1/41/4 24/40/25 23/39/24
f 2/42/3 24/40/25 1/41/4
f 27/43/26 26/44/27 25/45/28
f 28/46/29 26/44/27 27/43/26
f 29/47/30 28/46/29 27/43/26
f 30/48/31 28/46/29 29/47/30
f 31/49/32 30/48/31 29/47/30
f 32/50/33 30/48/31 31/49/32
f 33/51/34 32/50/33 31/49/32
f 34/52/35 32/50/33 33/51/34
f 35/53/36 34/52/35 33/51/34
f 36/54/37 34/52/35 35/53/36
f 37/55/38 36/54/37 35/53/36
f 38/56/39 36/54/37 37/55/38
f 39/57/40 38/56/39 37/55/38
f 40/58/41 38/56/39 39/57/40
f 41/59/42 40/58/41 39/57/40
f 42/60/43 40/58/41 41/59/42
f 43/61/44 42/60/43 41/59/42
f 44/62/45 42/60/43 43/61/44
f 45/63/46 44/62/45 43/61/44
f 46/64/47 44/62/45 45/63/46
f 47/65/48 46/64/47 45/63/46
f 48/66/49 46/64/47 47/65/48
f 25/45/28 48/67/49 47/68/48
f 26/44/27 48/67/49 25/45/28
f 28/46/29 3/17/2 26/44/27
f 5/21/6 3/17/2 28/46/29
f 30/48/31 5/21/6 28/46/29
f 7/23/8 5/21/6 30/48/31
f 32/50/33 7/23/8 30/48/31
f 9/25/10 7/23/8 32/50/33
f 34/52/35 9/25/10 32/50/33
f 11/27/12 9/25/10 34/52/35
f 36/54/37 11/27/12 34/52/35
f 13/29/14 11/27/12 36/54/37
f 38/56/39 13/29/14 36/54/37
f 15/31/16 13/29/14 38/56/39
f 40/58/41 15/31/16 38/56/39
f 17/33/18 15/31/16 40/58/41
f 42/60/43 17/33/18 40/58/41
f 19/35/20 17/33/18 42/60/43
f 44/62/45 19/35/20 42/60/43
f 21/37/22 19/35/20 44/62/45
f 46/64/47 21/37/22 44/62/45
f 23/39/24 21/37/22 46/64/47
f 48/66/49 23/39/24 46/64/47
f 1/41/4 23/39/24 48/66/49
f 26/44/27 1/19/4 48/67/49
f 3/17/2 1/19/4 26/44/27
